<svg width="126" height="86" viewBox="0 0 126 86" fill="none" xmlns="http://www.w3.org/2000/svg">
<g filter="url(#filter0_d_16_123)">
<rect width="86" height="46" transform="translate(20 20)" fill="#9E8CFC"/>
<g clip-path="url(#clip0_16_123)">
<path d="M73.8339 32.4375H70.3125V30.8125C70.3125 30.3632 69.9493 30 69.5 30C69.0507 30 68.6875 30.3632 68.6875 30.8125V32.4375H63.8125V30.8125C63.8125 30.3632 63.4485 30 63 30C62.5515 30 62.1875 30.3632 62.1875 30.8125V32.4375H57.3125V30.8125C57.3125 30.3632 56.9485 30 56.5 30C56.0515 30 55.6875 30.3632 55.6875 30.8125V32.4375H52.1669C50.9701 32.4375 50 33.4068 50 34.6036V53.8331C50 55.0299 50.9701 56 52.1669 56H73.8339C75.0307 56 76 55.0299 76 53.8331V34.6036C76 33.4068 75.0307 32.4375 73.8339 32.4375ZM74.375 53.8331C74.375 54.1321 74.1321 54.375 73.8339 54.375H52.1669C51.8679 54.375 51.625 54.1321 51.625 53.8331V34.6036C51.625 34.3054 51.8679 34.0625 52.1669 34.0625H55.6875V35.6875C55.6875 36.1368 56.0515 36.5 56.5 36.5C56.9485 36.5 57.3125 36.1368 57.3125 35.6875V34.0625H62.1875V35.6875C62.1875 36.1368 62.5515 36.5 63 36.5C63.4485 36.5 63.8125 36.1368 63.8125 35.6875V34.0625H68.6875V35.6875C68.6875 36.1368 69.0507 36.5 69.5 36.5C69.9493 36.5 70.3125 36.1368 70.3125 35.6875V34.0625H73.8339C74.1321 34.0625 74.375 34.3054 74.375 34.6036V53.8331ZM55.6875 39.75H58.9375V42.1875H55.6875V39.75ZM55.6875 43.8125H58.9375V46.25H55.6875V43.8125ZM55.6875 47.875H58.9375V50.3125H55.6875V47.875ZM61.375 47.875H64.625V50.3125H61.375V47.875ZM61.375 43.8125H64.625V46.25H61.375V43.8125ZM61.375 39.75H64.625V42.1875H61.375V39.75ZM67.0625 47.875H70.3125V50.3125H67.0625V47.875ZM67.0625 43.8125H70.3125V46.25H67.0625V43.8125ZM67.0625 39.75H70.3125V42.1875H67.0625V39.75Z" fill="white"/>
</g>
<rect x="70" y="25" width="20" height="20" rx="10" fill="#F2C94C"/>
<path d="M75.264 39.5V31.82L76.104 32.66H73.584V31.1H77.208V39.5H75.264ZM82.2672 39.644C81.5792 39.644 80.9632 39.476 80.4192 39.14C79.8752 38.796 79.4472 38.3 79.1352 37.652C78.8232 37.004 78.6672 36.22 78.6672 35.3C78.6672 34.38 78.8232 33.596 79.1352 32.948C79.4472 32.3 79.8752 31.808 80.4192 31.472C80.9632 31.128 81.5792 30.956 82.2672 30.956C82.9632 30.956 83.5792 31.128 84.1152 31.472C84.6592 31.808 85.0872 32.3 85.3992 32.948C85.7112 33.596 85.8672 34.38 85.8672 35.3C85.8672 36.22 85.7112 37.004 85.3992 37.652C85.0872 38.3 84.6592 38.796 84.1152 39.14C83.5792 39.476 82.9632 39.644 82.2672 39.644ZM82.2672 38C82.5952 38 82.8792 37.908 83.1192 37.724C83.3672 37.54 83.5592 37.248 83.6952 36.848C83.8392 36.448 83.9112 35.932 83.9112 35.3C83.9112 34.668 83.8392 34.152 83.6952 33.752C83.5592 33.352 83.3672 33.06 83.1192 32.876C82.8792 32.692 82.5952 32.6 82.2672 32.6C81.9472 32.6 81.6632 32.692 81.4152 32.876C81.1752 33.06 80.9832 33.352 80.8392 33.752C80.7032 34.152 80.6352 34.668 80.6352 35.3C80.6352 35.932 80.7032 36.448 80.8392 36.848C80.9832 37.248 81.1752 37.54 81.4152 37.724C81.6632 37.908 81.9472 38 82.2672 38Z" fill="#4F4F4F"/>
</g>
<defs>
<filter id="filter0_d_16_123" x="0" y="0" width="126" height="86" filterUnits="userSpaceOnUse" color-interpolation-filters="sRGB">
<feFlood flood-opacity="0" result="BackgroundImageFix"/>
<feColorMatrix in="SourceAlpha" type="matrix" values="0 0 0 0 0 0 0 0 0 0 0 0 0 0 0 0 0 0 127 0" result="hardAlpha"/>
<feOffset/>
<feGaussianBlur stdDeviation="10"/>
<feComposite in2="hardAlpha" operator="out"/>
<feColorMatrix type="matrix" values="0 0 0 0 0.619608 0 0 0 0 0.54902 0 0 0 0 0.988235 0 0 0 0.7 0"/>
<feBlend mode="normal" in2="BackgroundImageFix" result="effect1_dropShadow_16_123"/>
<feBlend mode="normal" in="SourceGraphic" in2="effect1_dropShadow_16_123" result="shape"/>
</filter>
<clipPath id="clip0_16_123">
<rect width="26" height="26" fill="white" transform="translate(50 30)"/>
</clipPath>
</defs>
</svg>
