<svg width="86" height="46" viewBox="0 0 86 46" fill="none" xmlns="http://www.w3.org/2000/svg">
<path d="M43 15.6875C43.2242 15.6875 43.4062 15.8695 43.4062 16.0938C43.4062 16.318 43.2234 16.5 43 16.5C38.6718 16.5 34.875 18.7782 34.875 21.375C34.875 21.5992 34.693 21.7812 34.4688 21.7812C34.2445 21.7812 34.0625 21.5992 34.0625 21.375C34.0625 18.2924 38.1551 15.6875 43 15.6875ZM43 11.625C35.8199 11.625 30 15.9906 30 21.375C30 24.7282 32.2579 27.6849 35.694 29.4399C35.694 29.4618 35.6875 29.4764 35.6875 29.5C35.6875 30.9568 34.5996 32.5249 34.121 33.348C34.1218 33.348 34.1226 33.348 34.1226 33.348C34.0844 33.4374 34.0625 33.5357 34.0625 33.6389C34.0625 34.0451 34.3916 34.375 34.7986 34.375C34.875 34.375 35.0091 34.3547 35.0058 34.3636C37.5449 33.9476 39.9369 31.6149 40.4926 30.9389C41.3043 31.0584 42.1412 31.125 43 31.125C50.1784 31.125 56 26.7594 56 21.375C56 15.9906 50.1793 11.625 43 11.625ZM43 29.5C42.2549 29.5 41.4904 29.4431 40.7283 29.3318C40.6494 29.3188 40.5706 29.3147 40.4926 29.3147C40.01 29.3147 39.5477 29.5293 39.2365 29.9079C38.8888 30.3312 37.8991 31.2761 36.7299 31.9708C37.0468 31.2436 37.2946 30.4287 37.3117 29.5886C37.3166 29.5366 37.319 29.4837 37.319 29.4391C37.319 28.8281 36.9769 28.2699 36.4334 27.992C33.4223 26.4547 31.625 23.9807 31.625 21.375C31.625 16.8949 36.7275 13.25 43 13.25C49.2709 13.25 54.375 16.8949 54.375 21.375C54.375 25.8551 49.2717 29.5 43 29.5Z" fill="#4F4F4F"/>
<rect x="50" y="5" width="20" height="20" rx="10" fill="#EA5455"/>
<path d="M55.264 19.5V11.82L56.104 12.66H53.584V11.1H57.208V19.5H55.264ZM62.2672 19.644C61.5792 19.644 60.9632 19.476 60.4192 19.14C59.8752 18.796 59.4472 18.3 59.1352 17.652C58.8232 17.004 58.6672 16.22 58.6672 15.3C58.6672 14.38 58.8232 13.596 59.1352 12.948C59.4472 12.3 59.8752 11.808 60.4192 11.472C60.9632 11.128 61.5792 10.956 62.2672 10.956C62.9632 10.956 63.5792 11.128 64.1152 11.472C64.6592 11.808 65.0872 12.3 65.3992 12.948C65.7112 13.596 65.8672 14.38 65.8672 15.3C65.8672 16.22 65.7112 17.004 65.3992 17.652C65.0872 18.3 64.6592 18.796 64.1152 19.14C63.5792 19.476 62.9632 19.644 62.2672 19.644ZM62.2672 18C62.5952 18 62.8792 17.908 63.1192 17.724C63.3672 17.54 63.5592 17.248 63.6952 16.848C63.8392 16.448 63.9112 15.932 63.9112 15.3C63.9112 14.668 63.8392 14.152 63.6952 13.752C63.5592 13.352 63.3672 13.06 63.1192 12.876C62.8792 12.692 62.5952 12.6 62.2672 12.6C61.9472 12.6 61.6632 12.692 61.4152 12.876C61.1752 13.06 60.9832 13.352 60.8392 13.752C60.7032 14.152 60.6352 14.668 60.6352 15.3C60.6352 15.932 60.7032 16.448 60.8392 16.848C60.9832 17.248 61.1752 17.54 61.4152 17.724C61.6632 17.908 61.9472 18 62.2672 18Z" fill="white"/>
</svg>
