<svg width="86" height="46" viewBox="0 0 86 46" fill="none" xmlns="http://www.w3.org/2000/svg">
<g clip-path="url(#clip0_16_162)">
<path d="M46.804 13.0323C46.4197 12.6488 45.9103 12.4375 45.3675 12.4375C44.8248 12.4375 44.3154 12.6488 43.9294 13.0331L42.7838 14.1803C42.3995 14.5638 42.1874 15.0741 42.1874 15.6176C42.1874 16.0003 42.2922 16.3668 42.4889 16.6844L31.4575 21.1036C30.7198 21.4278 30.1909 22.0932 30.0422 22.8822C29.8919 23.676 30.1437 24.4901 30.7198 25.0654L41.0548 35.2866C41.5 35.7319 42.0915 35.9846 42.7164 35.9992C42.731 36 42.7651 36 42.7797 36C42.9439 36 43.1104 35.9829 43.2754 35.9496C44.083 35.7822 44.7444 35.2241 45.0442 34.4644L49.3845 23.5964C49.7112 23.8117 50.0955 23.9271 50.4952 23.9271C51.0396 23.9271 51.549 23.715 51.9317 23.3315L53.0749 22.1875C53.4625 21.8024 53.6745 21.2913 53.6745 20.7469C53.6745 20.2026 53.4617 19.6907 53.0798 19.3104L46.804 13.0323ZM43.5354 33.8607C43.4346 34.115 43.2128 34.3027 42.9447 34.3579C42.8829 34.3709 42.8204 34.3758 42.7586 34.375C42.5522 34.3701 42.3532 34.2873 42.2045 34.1378L31.863 23.91C31.6729 23.7207 31.5892 23.4493 31.6395 23.1844C31.6891 22.9212 31.8662 22.6986 32.1124 22.5913L37.1637 20.5682C40.5673 21.7 43.9717 20.6096 47.3769 24.2423L43.5354 33.8607ZM51.9309 21.0337L50.782 22.1818C50.6236 22.3411 50.366 22.3411 50.2076 22.1818L48.7711 20.7461L47.6076 23.6622L47.7043 23.416C45.2587 20.9744 42.7732 20.6665 40.5307 20.3911C39.81 20.3025 39.1113 20.2099 38.4247 20.062L45.3237 17.2987L43.9302 15.9053C43.7718 15.7468 43.7718 15.4892 43.9302 15.3308L45.0791 14.1811C45.2375 14.0227 45.4951 14.0227 45.6535 14.1811L51.9301 20.4593C52.091 20.6178 52.091 20.8753 51.9309 21.0337ZM43.4062 27.0625C44.5258 27.0625 45.4374 26.1517 45.4374 25.0312C45.4374 23.9108 44.5266 23 43.4062 23C42.2857 23 41.3749 23.9108 41.3749 25.0312C41.3749 26.1517 42.2865 27.0625 43.4062 27.0625ZM43.4062 23.8125C44.0789 23.8125 44.6249 24.3585 44.6249 25.0312C44.6249 25.704 44.0789 26.25 43.4062 26.25C42.7326 26.25 42.1874 25.704 42.1874 25.0312C42.1874 24.3585 42.7326 23.8125 43.4062 23.8125ZM53.9687 10C52.8482 10 51.9374 10.9108 51.9374 12.0312C51.9374 13.1517 52.8482 14.0625 53.9687 14.0625C55.0891 14.0625 55.9999 13.1517 55.9999 12.0312C55.9999 10.9108 55.0891 10 53.9687 10ZM53.9687 13.25C53.2959 13.25 52.7499 12.704 52.7499 12.0312C52.7499 11.3585 53.2959 10.8125 53.9687 10.8125C54.6414 10.8125 55.1874 11.3585 55.1874 12.0312C55.1874 12.704 54.6414 13.25 53.9687 13.25ZM36.4999 23.8125C36.4999 24.7087 37.2287 25.4375 38.1249 25.4375C39.0211 25.4375 39.7499 24.7087 39.7499 23.8125C39.7499 22.9163 39.0211 22.1875 38.1249 22.1875C37.2287 22.1875 36.4999 22.9163 36.4999 23.8125ZM38.1249 23C38.5734 23 38.9374 23.3632 38.9374 23.8125C38.9374 24.2618 38.5734 24.625 38.1249 24.625C37.6764 24.625 37.3124 24.2618 37.3124 23.8125C37.3124 23.3632 37.6764 23 38.1249 23ZM39.7499 28.6875C39.7499 28.239 40.1139 27.875 40.5624 27.875C41.0109 27.875 41.3749 28.239 41.3749 28.6875C41.3749 29.136 41.0109 29.5 40.5624 29.5C40.1139 29.5 39.7499 29.136 39.7499 28.6875ZM52.7499 16.5C52.7499 16.0515 53.1139 15.6875 53.5624 15.6875C54.0109 15.6875 54.3749 16.0515 54.3749 16.5C54.3749 16.9485 54.0109 17.3125 53.5624 17.3125C53.1139 17.3125 52.7499 16.9485 52.7499 16.5Z" fill="#4F4F4F"/>
</g>
<defs>
<clipPath id="clip0_16_162">
<rect width="26" height="26" fill="white" transform="translate(30 10)"/>
</clipPath>
</defs>
</svg>
