<svg width="86" height="46" viewBox="0 0 86 46" fill="none" xmlns="http://www.w3.org/2000/svg">
<g clip-path="url(#clip0_16_111)">
<path d="M51.9375 14.0592L34.0625 14.0625C33.6132 14.0625 33.25 14.4224 33.25 14.8717V26.2468C33.25 26.6961 33.6132 27.0593 34.0625 27.0593H51.9375C52.3868 27.0593 52.75 26.6961 52.75 26.2468V14.8717C52.75 14.4224 52.3868 14.0592 51.9375 14.0592V14.0592ZM51.9375 26.25H34.0625V14.8717H51.9375V26.25ZM53.5625 10.8125H32.4375C31.0912 10.8125 30 11.9029 30 13.25V29.5C30 30.8439 31.0871 31.9326 32.4294 31.9359H40.5625V32.9247L35.4909 33.5836C35.1285 33.6738 34.875 33.9988 34.875 34.3718C34.875 34.8211 35.2382 35.1843 35.6875 35.1843H50.3125C50.7618 35.1843 51.125 34.8211 51.125 34.3718C51.125 33.9988 50.8715 33.6738 50.5091 33.5828L45.4375 32.9247V31.9359H53.5706C54.9129 31.9326 56 30.8439 56 29.5V13.25C56 11.9029 54.908 10.8125 53.5625 10.8125ZM54.375 29.5C54.375 29.9477 54.0102 30.3125 53.5625 30.3125H32.4375C31.989 30.3125 31.625 29.9477 31.625 29.5V13.25C31.625 12.8015 31.989 12.4375 32.4375 12.4375H53.5625C54.0102 12.4375 54.375 12.8015 54.375 13.25V29.5Z" fill="#4F4F4F"/>
</g>
<defs>
<clipPath id="clip0_16_111">
<rect width="26" height="26" fill="white" transform="translate(30 10)"/>
</clipPath>
</defs>
</svg>
