<svg width="86" height="46" viewBox="0 0 86 46" fill="none" xmlns="http://www.w3.org/2000/svg">
<g clip-path="url(#clip0_16_159)">
<path d="M43 26.25C43 25.3522 43.7272 24.625 44.625 24.625C45.5228 24.625 46.25 25.3522 46.25 26.25C46.25 27.1478 45.5228 27.875 44.625 27.875C43.7272 27.875 43 27.1478 43 26.25ZM53.5633 20.5625C53.5625 20.5625 53.5625 20.5625 53.5633 20.5625L53.5625 15.6875V13.25C53.5625 11.9037 52.4705 10.8125 51.125 10.8125H34.4688C32.0044 10.8125 30 12.8177 30 15.2812V31.5312C30 33.9948 32.0044 36 34.4688 36H49.0938C51.5573 36 53.5625 33.9948 53.5625 31.5312V30.3125C53.5625 30.3125 53.5625 30.3125 53.5633 30.3125C56.8117 27.8742 56.8117 23.0008 53.5633 20.5625ZM34.4688 12.4375H51.125C51.5727 12.4375 51.9375 12.8015 51.9375 13.25V18.2745C51.6824 18.1835 51.411 18.125 51.125 18.125H51.1242V14.0625C51.1242 13.6132 50.7602 13.25 50.3117 13.25H33.2492C32.8007 13.25 32.4367 13.6132 32.4367 14.0625V17.2662C31.9354 16.7535 31.625 16.0547 31.625 15.2812C31.625 13.7107 32.8974 12.4375 34.4688 12.4375ZM50.3117 14.875H33.2492V14.0625H50.3117V14.875ZM50.3117 15.6875V16.5H33.2492V15.6875H50.3117ZM50.3117 17.3125V18.125H34.4688C34.03 18.125 33.6205 18.0177 33.25 17.8406V17.3125H50.3117ZM51.9375 31.5312C51.9375 33.1018 50.6643 34.375 49.0938 34.375H34.4688C32.8974 34.375 31.625 33.1018 31.625 31.5312V18.7254C32.3977 19.3649 33.3889 19.75 34.4688 19.75H51.125C51.5727 19.75 51.9375 20.114 51.9375 20.5625V22.1875H44.625C42.3809 22.1875 40.5625 24.0059 40.5625 26.25C40.5625 28.4941 42.3817 30.3125 44.625 30.3125H51.9375V31.5312ZM52.9751 28.6875H44.625C43.2811 28.6875 42.1875 27.5939 42.1875 26.25C42.1875 24.9061 43.2811 23.8125 44.625 23.8125H51.9375C52.4388 23.806 52.9361 23.5631 53.2391 23.1592C53.3236 23.0455 53.3894 22.9179 53.4422 22.7847C53.4496 22.7668 53.4626 22.753 53.4691 22.7343C54.0532 23.5005 54.375 24.4397 54.375 25.4375C54.375 26.6871 53.8704 27.8466 52.9751 28.6875Z" fill="#4F4F4F"/>
</g>
<defs>
<clipPath id="clip0_16_159">
<rect width="26" height="26" fill="white" transform="translate(30 10)"/>
</clipPath>
</defs>
</svg>
