<svg width="86" height="46" viewBox="0 0 86 46" fill="none" xmlns="http://www.w3.org/2000/svg">
<g clip-path="url(#clip0_16_168)">
<path d="M53.8834 12.0963C52.5469 10.7613 50.787 10 49.0523 10C47.589 10 46.2419 10.5428 45.2579 11.5251L41.3035 15.5096C41.2913 15.5209 41.2775 15.5282 41.2653 15.5404C41.2588 15.5469 41.2548 15.5559 41.2483 15.5616L41.2499 15.5632L32.8576 24.0205C32.4708 24.4048 32.1905 24.8834 32.0345 25.4058L30.1259 32.3186C30.1243 32.3372 30 32.88 30 33.1562C30 34.726 31.2748 36 32.847 36C33.1598 36 33.7651 35.8505 33.7871 35.8472L40.6754 34.0362C41.1987 33.881 41.674 33.5982 42.0608 33.2107L54.4619 20.712C56.7174 18.4549 56.4631 14.6719 53.8834 12.0963ZM43.0114 29.3334C42.9447 28.6006 42.7376 27.8815 42.4272 27.199L50.1094 19.5176C50.579 21.0012 50.3377 22.5531 49.3083 23.5834C49.3018 23.5899 49.2936 23.5939 49.2879 23.6004L49.2993 23.611L43.0203 29.9404C43.0203 29.7381 43.0301 29.5398 43.0114 29.3334ZM42.0193 26.458C41.7163 25.9599 41.3717 25.4789 40.9452 25.0532C40.4487 24.5568 39.8792 24.1676 39.2844 23.8409L47.0292 16.0962C47.6369 16.3659 48.2195 16.7502 48.7338 17.2646C49.1734 17.7025 49.513 18.1932 49.7746 18.7035L42.0193 26.458ZM38.5199 23.4566C37.7675 23.1536 36.9794 22.9805 36.1896 22.9699L42.4483 16.6633C43.4062 15.7289 44.8013 15.46 46.1753 15.8004L38.5199 23.4566ZM33.3857 34.2718C33.2971 34.2921 33.0217 34.362 32.8348 34.375C32.1669 34.3669 31.625 33.8241 31.625 33.1562C31.6348 33.0198 31.6892 32.7849 31.7079 32.6996L32.5634 29.6007C33.4921 29.5756 34.4915 29.9371 35.2772 30.7244C36.0751 31.5207 36.4504 32.5396 36.4098 33.4796L33.3857 34.2718ZM37.2101 33.2676C37.1906 32.1772 36.747 31.0429 35.8516 30.1492C35.005 29.3018 33.8968 28.8126 32.7918 28.7688L33.601 25.8381C33.6595 25.6431 33.7757 25.4505 33.9187 25.2823C35.5486 24.1156 38.0551 24.4601 39.7963 26.2029C41.6383 28.044 41.9226 30.7415 40.504 32.3519C40.4097 32.4014 40.3147 32.4486 40.2123 32.4786L37.2101 33.2676ZM53.3114 19.5648L51.9432 20.9436C51.9432 20.7599 51.9651 20.5836 51.9481 20.3959C51.8051 18.8238 51.0722 17.3036 49.8819 16.1149C48.5583 14.7905 46.8033 14.0308 45.0654 14.0259L46.4109 12.6691C47.0844 11.9971 48.0245 11.625 49.0523 11.625C50.3596 11.625 51.7027 12.2165 52.7354 13.2459C53.7047 14.2136 54.2824 15.4161 54.3653 16.6324C54.4416 17.7675 54.0671 18.8083 53.3114 19.5648Z" fill="#4F4F4F"/>
</g>
<defs>
<clipPath id="clip0_16_168">
<rect width="26" height="26" fill="white" transform="translate(30 10)"/>
</clipPath>
</defs>
</svg>
