<svg width="86" height="46" viewBox="0 0 86 46" fill="none" xmlns="http://www.w3.org/2000/svg">
<path d="M52.75 14.0625H33.25C31.4552 14.0625 30 15.5185 30 17.3125V27.875C30 29.6698 31.4552 31.125 33.25 31.125H52.75C54.5448 31.125 56 29.6698 56 27.875V17.3125C56 15.5185 54.5448 14.0625 52.75 14.0625ZM31.625 18.3281L37.3117 22.5938L31.625 26.8594V18.3281ZM54.375 27.875C54.375 28.772 53.6454 29.5 52.75 29.5H33.25C32.3538 29.5 31.625 28.772 31.625 27.875L37.9885 23.1016L41.5375 25.7641C41.9706 26.0875 42.4849 26.2516 43 26.2516C43.5143 26.2516 44.0286 26.0883 44.4617 25.7641L48.0115 23.1016L54.375 27.875ZM54.375 26.8594L48.6875 22.5938L54.375 18.3281V26.8594ZM43.9742 25.1141C43.6906 25.327 43.3542 25.4391 43 25.4391C42.6458 25.4391 42.3086 25.3262 42.025 25.1141L31.625 17.3125C31.625 16.4163 32.3538 15.6875 33.25 15.6875H52.75C53.6454 15.6875 54.375 16.4163 54.375 17.3125L43.9742 25.1141Z" fill="#4F4F4F"/>
<rect x="50" y="5" width="20" height="20" rx="10" fill="#6FCF97"/>
<path d="M55.264 19.5V11.82L56.104 12.66H53.584V11.1H57.208V19.5H55.264ZM62.2672 19.644C61.5792 19.644 60.9632 19.476 60.4192 19.14C59.8752 18.796 59.4472 18.3 59.1352 17.652C58.8232 17.004 58.6672 16.22 58.6672 15.3C58.6672 14.38 58.8232 13.596 59.1352 12.948C59.4472 12.3 59.8752 11.808 60.4192 11.472C60.9632 11.128 61.5792 10.956 62.2672 10.956C62.9632 10.956 63.5792 11.128 64.1152 11.472C64.6592 11.808 65.0872 12.3 65.3992 12.948C65.7112 13.596 65.8672 14.38 65.8672 15.3C65.8672 16.22 65.7112 17.004 65.3992 17.652C65.0872 18.3 64.6592 18.796 64.1152 19.14C63.5792 19.476 62.9632 19.644 62.2672 19.644ZM62.2672 18C62.5952 18 62.8792 17.908 63.1192 17.724C63.3672 17.54 63.5592 17.248 63.6952 16.848C63.8392 16.448 63.9112 15.932 63.9112 15.3C63.9112 14.668 63.8392 14.152 63.6952 13.752C63.5592 13.352 63.3672 13.06 63.1192 12.876C62.8792 12.692 62.5952 12.6 62.2672 12.6C61.9472 12.6 61.6632 12.692 61.4152 12.876C61.1752 13.06 60.9832 13.352 60.8392 13.752C60.7032 14.152 60.6352 14.668 60.6352 15.3C60.6352 15.932 60.7032 16.448 60.8392 16.848C60.9832 17.248 61.1752 17.54 61.4152 17.724C61.6632 17.908 61.9472 18 62.2672 18Z" fill="#4F4F4F"/>
</svg>
