<svg width="86" height="46" viewBox="0 0 86 46" fill="none" xmlns="http://www.w3.org/2000/svg">
<g clip-path="url(#clip0_16_156)">
<path d="M55.9715 22.818C55.9634 22.7839 55.9683 22.7473 55.9553 22.714C55.9504 22.7002 55.9382 22.6929 55.9334 22.6799C55.9252 22.6604 55.9269 22.6384 55.9163 22.6197C53.56 18.1096 48.4307 14.8783 43.0195 14.8783C37.6074 14.8783 32.4789 18.1047 30.121 22.6141C30.1105 22.6327 30.1121 22.6547 30.104 22.6742C30.0983 22.6872 30.0869 22.6945 30.082 22.7083C30.069 22.7416 30.0739 22.7782 30.0658 22.8123C30.0512 22.8732 30.0374 22.9317 30.0374 22.9943C30.0374 23.0569 30.052 23.1146 30.0658 23.1763C30.0739 23.2104 30.069 23.247 30.082 23.2803C30.0869 23.2941 30.0991 23.3014 30.104 23.3144C30.1121 23.3339 30.1105 23.3559 30.121 23.3746C32.4781 27.8847 37.6074 31.1161 43.0195 31.1161C48.4307 31.1161 53.56 27.8896 55.9163 23.3802C55.9277 23.3616 55.926 23.3396 55.9334 23.3201C55.9382 23.3071 55.9504 23.2998 55.9553 23.286C55.9683 23.2527 55.9634 23.2161 55.9715 23.182C55.9854 23.1203 56 23.0617 56 23C56 22.9382 55.9854 22.8789 55.9715 22.818ZM43.0187 29.4902C38.4565 29.4902 33.9902 26.8976 31.7647 22.9943C34.0024 19.0862 38.4622 16.5024 43.0187 16.5024C47.5792 16.5024 52.0464 19.0959 54.2718 22.9984C52.0342 26.9073 47.5752 29.4902 43.0187 29.4902ZM43.0187 19.7492C43.2429 19.7492 43.4233 19.9304 43.4233 20.1554C43.4233 20.3789 43.2421 20.5609 43.0187 20.5609V20.5617C41.6748 20.5617 40.582 21.6545 40.582 22.9967C40.582 23.221 40.4 23.403 40.1765 23.403C39.9531 23.403 39.7703 23.221 39.7703 22.9967C39.7703 21.2052 41.2222 19.7532 43.0138 19.75C43.0154 19.75 43.017 19.7492 43.0187 19.7492ZM43 17.3125C39.858 17.3125 37.3125 19.8589 37.3125 23C37.3125 26.1411 39.8589 28.6875 43 28.6875C46.1403 28.6875 48.6875 26.1403 48.6875 23C48.6875 19.8581 46.1403 17.3125 43 17.3125ZM43 27.875C40.3114 27.875 38.125 25.6886 38.125 23C38.125 20.3114 40.3114 18.125 43 18.125C45.6885 18.125 47.875 20.3114 47.875 23C47.875 25.6886 45.6885 27.875 43 27.875Z" fill="#4F4F4F"/>
</g>
<defs>
<clipPath id="clip0_16_156">
<rect width="26" height="26" fill="white" transform="translate(30 10)"/>
</clipPath>
</defs>
</svg>
