<svg width="86" height="46" viewBox="0 0 86 46" fill="none" xmlns="http://www.w3.org/2000/svg">
<path d="M55.9382 24.9947L52.6866 12.8023C52.49 12.1092 51.8473 11.625 51.125 11.625H34.875C34.1519 11.625 33.51 12.1092 33.3134 12.8023L30.0617 24.9947C30.0203 25.1426 30 25.2913 30 25.4375V31.125C30 32.9198 31.4552 34.375 33.25 34.375H52.75C54.5448 34.375 56 32.9198 56 31.125V25.4375C56 25.2913 55.9797 25.1426 55.9382 24.9947ZM54.375 31.125C54.375 32.0204 53.6454 32.75 52.75 32.75H33.25C32.3538 32.75 31.625 32.0204 31.625 31.125V25.4375L34.8758 13.2492H51.1234L54.375 25.4375V31.125ZM49.2904 14.875H36.7096C36.3416 14.875 36.019 15.1228 35.9239 15.4787L33.1249 25.2287C33.0607 25.4733 33.1119 25.7333 33.2662 25.9331C33.4206 26.133 33.6579 26.25 33.9097 26.25H37.6213L38.7969 28.6022C39.0732 29.1523 39.6354 29.5 40.2513 29.5H45.7487C46.3646 29.5 46.926 29.1523 47.2023 28.6022L48.3779 26.25H52.0894C52.3421 26.25 52.5802 26.1322 52.7337 25.9323C52.8873 25.7324 52.9385 25.4724 52.8751 25.2279L50.0761 15.4779C49.981 15.122 49.6584 14.875 49.2904 14.875ZM49.7283 24.625H48.3779C47.7588 24.625 47.2022 24.9679 46.9244 25.5228L45.7487 27.875H40.2513L39.0756 25.5228C38.7978 24.9679 38.2412 24.625 37.6221 24.625H34.3339L36.7096 15.6875H49.2904L51.6661 24.625H49.7283Z" fill="#4F4F4F"/>
</svg>
