<svg width="86" height="46" viewBox="0 0 86 46" fill="none" xmlns="http://www.w3.org/2000/svg">
<g clip-path="url(#clip0_16_130)">
<path d="M56 16.5C56 15.3576 55.2224 14.381 54.1101 14.1243L43.5371 11.6843C43.3599 11.6445 43.1796 11.625 43 11.625C42.8204 11.625 42.6401 11.6445 42.4516 11.6867L31.8899 14.1243C30.7767 14.381 30 15.3576 30 16.5C30 17.6424 30.7776 18.619 31.8891 18.8757L34.0625 19.3771V26.25C34.0625 28.4064 36.5309 30.3125 43 30.3125C49.4691 30.3125 51.9375 28.4064 51.9375 26.25V19.3771L54.1101 18.8757C55.2224 18.619 56 17.6424 56 16.5ZM50.3125 26.25C50.3125 27.1478 47.875 28.6875 43 28.6875C38.125 28.6875 35.6875 27.1478 35.6875 26.25V19.7524L42.4621 21.3157C42.6392 21.3555 42.8204 21.375 43 21.375C43.1796 21.375 43.3608 21.3555 43.5476 21.3132L50.3125 19.7524V26.25ZM43.1828 19.7297C43.1219 19.7427 43.0609 19.75 43 19.75C42.9391 19.75 42.8773 19.7427 42.8172 19.7297L32.2547 17.2922C31.8858 17.2069 31.625 16.8786 31.625 16.5C31.625 16.1214 31.8858 15.7931 32.2547 15.7078L42.8172 13.2703C42.8773 13.2573 42.9382 13.25 43 13.25C43.0618 13.25 43.1227 13.2573 43.1828 13.2703L53.7453 15.7078C54.1134 15.7931 54.375 16.1214 54.375 16.5C54.375 16.8786 54.1134 17.2069 53.7453 17.2922L43.1828 19.7297ZM53.5625 20.5625C53.5625 20.1132 53.9257 19.75 54.375 19.75C54.8235 19.75 55.1875 20.1132 55.1875 20.5625V27.875C55.1875 28.3243 54.8235 28.6875 54.375 28.6875C53.9257 28.6875 53.5625 28.3243 53.5625 27.875V20.5625ZM54.375 29.5C55.272 29.5 56 31.853 56 32.75C56 33.647 55.272 34.375 54.375 34.375C53.4772 34.375 52.75 33.647 52.75 32.75C52.75 31.853 53.4772 29.5 54.375 29.5Z" fill="#4F4F4F"/>
</g>
<defs>
<clipPath id="clip0_16_130">
<rect width="26" height="26" fill="white" transform="translate(30 10)"/>
</clipPath>
</defs>
</svg>
