<svg width="86" height="46" viewBox="0 0 86 46" fill="none" xmlns="http://www.w3.org/2000/svg">
<path d="M43.0016 24.4186C45.6902 24.4186 47.8766 22.2314 47.8766 19.5436C47.8766 16.8559 45.6902 14.6686 43.0016 14.6686C40.3131 14.6686 38.1266 16.8551 38.1266 19.5436C38.1266 22.2322 40.3131 24.4186 43.0016 24.4186ZM43.0016 15.4811C45.2425 15.4811 47.0641 17.3028 47.0641 19.5436C47.0641 21.7845 45.2425 23.6061 43.0016 23.6061C40.7608 23.6061 38.9391 21.7845 38.9391 19.5436C38.9391 17.3028 40.7608 15.4811 43.0016 15.4811ZM43 10C37.6229 10 33.25 14.3193 33.25 19.7508C33.25 25.4383 38.1258 31.2566 41.6805 35.3459C41.6935 35.3622 42.2639 36 42.9691 36C42.9707 36 43.0284 36 43.0317 36C43.7361 36 44.3073 35.3622 44.3203 35.3459C47.8766 31.2566 52.7516 25.4391 52.7516 19.7508C52.7516 14.3193 48.3779 10 43 10V10ZM43.0951 34.2799C43.078 34.2962 43.0284 34.3319 42.9854 34.3596C42.9773 34.3376 42.9171 34.2897 42.8806 34.2515C39.9028 30.8252 34.875 25.0426 34.875 19.7508C34.875 15.2707 38.5207 11.625 43 11.625C47.4817 11.625 51.1266 15.2707 51.1266 19.7516C51.1266 25.0426 46.0989 30.8252 43.0951 34.2799Z" fill="#4F4F4F"/>
</svg>
