<svg width="86" height="46" viewBox="0 0 86 46" fill="none" xmlns="http://www.w3.org/2000/svg">
<g clip-path="url(#clip0_16_150)">
<path d="M47.8783 10C43.3908 10 39.7533 13.6384 39.7533 18.125C39.7533 19.1691 39.9718 20.1571 40.3326 21.0736L30.4615 30.9438C30.1763 31.2298 30 31.5012 30 31.9375V34.375C30 35.2444 30.7548 36 31.625 36H34.0625C34.498 36 34.7734 35.8253 35.0586 35.5417L36.2246 34.375H38.1283C39.0252 34.375 39.7533 33.647 39.7533 32.75V31.125H41.3783C42.2752 31.125 43.0033 30.397 43.0033 29.5V27.5955L44.9281 25.6691C45.8454 26.0306 46.8326 26.25 47.8783 26.25C52.3641 26.25 56.0033 22.6116 56.0033 18.125C56.0033 13.6384 52.3641 10 47.8783 10ZM47.8783 24.625C46.6757 24.625 45.561 24.2756 44.5949 23.7052L44.3154 23.9839L41.8536 26.4466C41.5489 26.7513 41.3774 27.1641 41.3774 27.5955V29.5H39.7524C38.8554 29.5 38.1274 30.2272 38.1274 31.125V32.75H36.2246C35.7939 32.75 35.3804 32.9214 35.0757 33.2261L33.9236 34.3783L31.6274 34.375L31.625 32.0594L41.1028 22.5986C41.1028 22.5986 41.1028 22.5994 41.1036 22.6003L42.2972 21.4067C41.7268 20.4406 41.3774 19.3267 41.3774 18.1242C41.3774 14.5346 44.2886 11.6242 47.8774 11.6242C51.4662 11.6242 54.3774 14.5346 54.3774 18.1242C54.3774 21.7138 51.4679 24.625 47.8783 24.625ZM52.6038 16.6942C51.6929 15.4251 50.5839 14.3176 49.3091 13.4003C49.1019 13.25 48.8337 13.2126 48.5924 13.2971C47.4639 13.6944 46.6912 14.4663 46.2963 15.5949C46.2662 15.6794 46.2516 15.7671 46.2516 15.8541C46.2516 16.0157 46.302 16.1758 46.3995 16.3115C47.3136 17.5823 48.421 18.6905 49.6926 19.6046C49.9006 19.7541 50.1671 19.7923 50.4084 19.7086C51.5386 19.3137 52.3113 18.5402 52.7078 17.4108C52.7378 17.3263 52.7524 17.2386 52.7524 17.1516C52.7516 16.9899 52.7004 16.8299 52.6038 16.6942ZM50.1663 18.9456C48.9654 18.0819 47.9197 17.0363 47.0625 15.8638C47.3769 14.9676 47.9652 14.3794 48.8354 14.0592C50.0371 14.9246 51.0811 15.9678 51.9359 17.1557C51.6182 18.0454 51.0316 18.6304 50.1663 18.9456Z" fill="#4F4F4F"/>
</g>
<defs>
<clipPath id="clip0_16_150">
<rect width="26" height="26" fill="white" transform="translate(30 10)"/>
</clipPath>
</defs>
</svg>
