<svg width="86" height="46" viewBox="0 0 86 46" fill="none" xmlns="http://www.w3.org/2000/svg">
<g clip-path="url(#clip0_16_126)">
<path d="M53.5625 10H35.6875C34.3412 10 33.25 11.0904 33.25 12.4375V14.0625H32.4375C31.0912 14.0625 30 15.1529 30 16.5V32.75C30 34.5448 31.4552 36 33.25 36H52.75C54.5448 36 56 34.5448 56 32.75V12.4375C56 11.0904 54.908 10 53.5625 10ZM54.375 32.75C54.375 33.6454 53.6454 34.375 52.75 34.375H33.25C32.3538 34.375 31.625 33.6454 31.625 32.75V16.5C31.625 16.0515 31.989 15.6875 32.4375 15.6875H33.25V31.9375C33.25 32.3868 33.6132 32.75 34.0625 32.75C34.5118 32.75 34.875 32.3868 34.875 31.9375V12.4375C34.875 11.989 35.239 11.625 35.6875 11.625H53.5625C54.0102 11.625 54.375 11.989 54.375 12.4375V32.75ZM45.8421 20.5666C45.6187 20.5666 45.4359 20.3846 45.4359 20.1603C45.4359 19.9361 45.6187 19.7541 45.8421 19.7541H52.3421C52.5672 19.7541 52.7484 19.9361 52.7484 20.1603C52.7484 20.3846 52.5672 20.5666 52.3421 20.5666H45.8421ZM45.8421 18.1291C45.6187 18.1291 45.4359 17.9471 45.4359 17.7228C45.4359 17.4986 45.6187 17.3166 45.8421 17.3166H52.3421C52.5672 17.3166 52.7484 17.4986 52.7484 17.7228C52.7484 17.9471 52.5672 18.1291 52.3421 18.1291H45.8421ZM45.8421 15.6916C45.6187 15.6916 45.4359 15.5096 45.4359 15.2853C45.4359 15.0611 45.6187 14.8791 45.8421 14.8791H52.3421C52.5672 14.8791 52.7484 15.0611 52.7484 15.2853C52.7484 15.5096 52.5672 15.6916 52.3421 15.6916H45.8421ZM43.4062 31.9408C43.6305 31.9408 43.8125 32.1236 43.8125 32.347C43.8125 32.5721 43.6297 32.7533 43.4062 32.7533H36.9062C36.682 32.7533 36.5 32.5721 36.5 32.347C36.5 32.1236 36.682 31.9408 36.9062 31.9408H43.4062ZM43.4062 29.5033C43.6305 29.5033 43.8125 29.6861 43.8125 29.9095C43.8125 30.1346 43.6297 30.3158 43.4062 30.3158H36.9062C36.682 30.3158 36.5 30.1346 36.5 29.9095C36.5 29.6861 36.682 29.5033 36.9062 29.5033H43.4062ZM43.4062 27.0658C43.6305 27.0658 43.8125 27.2486 43.8125 27.472C43.8125 27.6971 43.6297 27.8783 43.4062 27.8783H36.9062C36.682 27.8783 36.5 27.6971 36.5 27.472C36.5 27.2486 36.682 27.0658 36.9062 27.0658H43.4062ZM52.3438 31.9408C52.5672 31.9408 52.75 32.1236 52.75 32.347C52.75 32.5721 52.5672 32.7533 52.3438 32.7533H45.8438C45.6187 32.7533 45.4375 32.5721 45.4375 32.347C45.4375 32.1236 45.6187 31.9408 45.8438 31.9408H52.3438ZM52.3438 29.5033C52.5672 29.5033 52.75 29.6861 52.75 29.9095C52.75 30.1346 52.5672 30.3158 52.3438 30.3158H45.8438C45.6187 30.3158 45.4375 30.1346 45.4375 29.9095C45.4375 29.6861 45.6187 29.5033 45.8438 29.5033H52.3438ZM52.3438 27.0658C52.5672 27.0658 52.75 27.2486 52.75 27.472C52.75 27.6971 52.5672 27.8783 52.3438 27.8783H45.8438C45.6187 27.8783 45.4375 27.6971 45.4375 27.472C45.4375 27.2486 45.6187 27.0658 45.8438 27.0658H52.3438ZM52.3438 22.1908C52.5672 22.1908 52.75 22.3727 52.75 22.597C52.75 22.8212 52.5672 23.0033 52.3438 23.0033H36.9062C36.682 23.0033 36.5 22.8212 36.5 22.597C36.5 22.3727 36.682 22.1908 36.9062 22.1908H52.3438ZM52.3438 24.6283C52.5672 24.6283 52.75 24.8111 52.75 25.0345C52.75 25.2596 52.5672 25.4408 52.3438 25.4408H36.9062C36.682 25.4408 36.5 25.2596 36.5 25.0345C36.5 24.8111 36.682 24.6283 36.9062 24.6283H52.3438ZM37.3125 20.5625H43C43.4493 20.5625 43.8125 20.1993 43.8125 19.75V14.0658C43.8125 13.6164 43.4493 13.2533 43 13.2533H37.3125C36.8632 13.2533 36.5 13.6164 36.5 14.0658V19.75C36.5 20.1985 36.8632 20.5625 37.3125 20.5625ZM38.125 14.875H42.1875V18.9375H38.125V14.875Z" fill="#4F4F4F"/>
</g>
<defs>
<clipPath id="clip0_16_126">
<rect width="26" height="26" fill="white" transform="translate(30 10)"/>
</clipPath>
</defs>
</svg>
