<svg width="86" height="46" viewBox="0 0 86 46" fill="none" xmlns="http://www.w3.org/2000/svg">
<g clip-path="url(#clip0_16_165)">
<path d="M55.5239 16.1628L50.6489 11.2878C50.3442 10.9831 49.9298 10.8125 49.5 10.8125H32.4375C31.0936 10.8125 30 11.9053 30 13.25V32.75C30 34.0939 31.0936 35.1875 32.4375 35.1875H53.5625C54.9064 35.1875 56 34.0939 56 32.75V17.3125C56 16.8811 55.8286 16.4675 55.5239 16.1628ZM54.375 32.75C54.375 33.1993 54.0118 33.5625 53.5625 33.5625H32.4375C31.9882 33.5625 31.625 33.1993 31.625 32.75V13.25C31.625 12.8007 31.9882 12.4375 32.4375 12.4375H48.6875V15.6875H48.6859C48.6859 17.0338 49.7779 18.125 51.1234 18.125H54.375V32.75ZM51.9359 17.3125H51.1234C50.228 17.3125 49.4984 16.5837 49.4984 15.6875H49.5V12.4375L54.375 17.3125H51.9359ZM42.5938 16.5C42.3695 16.5 42.1875 16.3188 42.1875 16.0938C42.1875 15.8687 42.3695 15.6875 42.5938 15.6875H46.6562C46.8797 15.6875 47.0625 15.8695 47.0625 16.0938C47.0625 16.318 46.8797 16.5 46.6562 16.5H42.5938ZM42.5938 18.9375C42.3695 18.9375 42.1875 18.7555 42.1875 18.5312C42.1875 18.307 42.3695 18.125 42.5938 18.125H46.6562C46.8797 18.125 47.0625 18.307 47.0625 18.5312C47.0625 18.7555 46.8797 18.9375 46.6562 18.9375H42.5938ZM42.1875 20.9688C42.1875 20.7437 42.3695 20.5625 42.5938 20.5625H52.3438C52.5672 20.5625 52.75 20.7445 52.75 20.9688C52.75 21.193 52.5672 21.375 52.3438 21.375H42.5938C42.3695 21.375 42.1875 21.193 42.1875 20.9688ZM52.3438 25.4375C52.5672 25.4375 52.75 25.6187 52.75 25.8438C52.75 26.0672 52.5672 26.25 52.3438 26.25H33.6562C33.432 26.25 33.25 26.0672 33.25 25.8438C33.25 25.6187 33.432 25.4375 33.6562 25.4375H52.3438ZM52.3438 27.875C52.5672 27.875 52.75 28.0562 52.75 28.2812C52.75 28.5047 52.5672 28.6875 52.3438 28.6875H33.6562C33.432 28.6875 33.25 28.5047 33.25 28.2812C33.25 28.0562 33.432 27.875 33.6562 27.875H52.3438ZM52.3438 30.3125C52.5672 30.3125 52.75 30.4937 52.75 30.7188C52.75 30.9422 52.5672 31.125 52.3438 31.125H33.6562C33.432 31.125 33.25 30.9422 33.25 30.7188C33.25 30.4937 33.432 30.3125 33.6562 30.3125H52.3438ZM52.3438 23C52.5672 23 52.75 23.182 52.75 23.4062C52.75 23.6305 52.5672 23.8125 52.3438 23.8125H33.6562C33.432 23.8125 33.25 23.6313 33.25 23.4062C33.25 23.1812 33.432 23 33.6562 23H52.3438ZM34.0625 21.375H39.75C40.1993 21.375 40.5625 21.0118 40.5625 20.5625V15.6875C40.5625 15.2382 40.1993 14.875 39.75 14.875H34.0625C33.6132 14.875 33.25 15.2382 33.25 15.6875V20.5625C33.25 21.011 33.6132 21.375 34.0625 21.375ZM34.875 16.5H38.9375V19.75H34.875V16.5Z" fill="#4F4F4F"/>
</g>
<defs>
<clipPath id="clip0_16_165">
<rect width="26" height="26" fill="white" transform="translate(30 10)"/>
</clipPath>
</defs>
</svg>
