<svg width="86" height="46" viewBox="0 0 86 46" fill="none" xmlns="http://www.w3.org/2000/svg">
<path d="M50.3125 20.5625V17.3125C50.3125 13.2736 47.0389 10 43 10C38.9611 10 35.6875 13.2736 35.6875 17.3125V20.5625C34.3412 20.5625 33.25 21.6537 33.25 23V28.6875C33.25 32.7264 36.5236 36 40.5625 36H45.4375C49.4764 36 52.75 32.7264 52.75 28.6875V23C52.75 21.6529 51.658 20.5625 50.3125 20.5625ZM37.3125 17.3125C37.3125 14.1714 39.8589 11.625 43 11.625C46.1411 11.625 48.6875 14.1714 48.6875 17.3125V20.5625H47.0625V17.3141C47.0625 15.07 45.2441 13.2516 43 13.2516C40.7559 13.2516 38.9375 15.07 38.9375 17.3141V20.5625H37.3125V17.3125ZM46.25 17.3125V20.5625H39.75V17.3125C39.75 15.5177 41.2052 14.0625 43 14.0625C44.7948 14.0625 46.25 15.5177 46.25 17.3125ZM51.125 25.4375V28.6875C51.125 31.8229 48.5729 34.375 45.4375 34.375H40.5625C37.4271 34.375 34.875 31.8229 34.875 28.6875V23C34.875 22.5515 35.239 22.1875 35.6875 22.1875C36.2294 22.1875 36.7706 22.1875 37.3125 22.1875H48.6875C49.2286 22.1875 49.7698 22.1875 50.3125 22.1875C50.7602 22.1875 51.125 22.5515 51.125 23V25.4375ZM43 25.4375C43.897 25.4375 44.625 26.1647 44.625 27.0625C44.625 27.5573 44.3585 28.499 44.0839 29.2416C43.8621 29.8412 43.6354 30.3109 43 30.3109C42.4158 30.3109 42.1379 29.8364 41.9169 29.2335C41.6456 28.4925 41.375 27.5557 41.375 27.0625C41.375 26.1647 42.103 25.4375 43 25.4375Z" fill="#4F4F4F"/>
</svg>
