<svg width="86" height="46" viewBox="0 0 86 46" fill="none" xmlns="http://www.w3.org/2000/svg">
<g clip-path="url(#clip0_16_144)">
<path d="M55.277 33.023C55.1137 32.9149 52.1505 30.9714 47.7427 30.0176C49.3596 27.9692 50.398 25.2141 50.8392 23.3802C51.4518 20.8387 51.2137 15.8663 48.773 12.7674C47.3462 10.9563 45.3499 10 43.0002 10C40.6504 10 38.6541 10.9571 37.2282 12.7674C34.7874 15.8654 34.5502 20.8379 35.162 23.3794C35.6032 25.2132 36.6407 27.9684 38.2584 30.0168C33.8506 30.9706 30.8874 32.9141 30.7249 33.0222C30.1294 33.4187 29.8629 34.1597 30.0709 34.8438C30.2772 35.5304 30.9102 36 31.6252 36H54.3752C55.091 36 55.7223 35.5304 55.9303 34.8446C56.1391 34.1605 55.8726 33.4195 55.277 33.023ZM46.4671 29.0109L46.2022 29.3472C44.2644 31.5735 41.7375 31.5735 39.8005 29.3472L39.5349 29.0109C37.272 26.1436 36.1492 22.3508 36.6326 18.7327C37.0754 15.2561 39.0677 11.625 43.0002 11.625C46.9327 11.625 48.9257 15.2569 49.3685 18.7336C49.8504 22.3532 48.7315 26.1419 46.4671 29.0109ZM31.6252 34.375C31.7373 34.3002 34.49 32.4949 38.6013 31.606L40.6195 31.1697C41.3402 31.6426 42.1308 31.9375 43.0002 31.9375C43.8704 31.9375 44.6601 31.6426 45.3808 31.1697L47.399 31.606C51.4778 32.4884 54.2208 34.2734 54.3752 34.375H31.6252Z" fill="#4F4F4F"/>
</g>
<defs>
<clipPath id="clip0_16_144">
<rect width="26" height="26" fill="white" transform="translate(30 10)"/>
</clipPath>
</defs>
</svg>
